<?xml version="1.0" encoding="iso-8859-1"?>
<!-- Generator: Adobe Illustrator 19.0.0, SVG Export Plug-In . SVG Version: 6.00 Build 0)  -->
<svg version="1.1" id="Capa_1" xmlns="http://www.w3.org/2000/svg" xmlns:xlink="http://www.w3.org/1999/xlink" x="0px" y="0px"
	 viewBox="0 0 512.115 512.115" style="enable-background:new 0 0 512.115 512.115;" xml:space="preserve">
<path style="fill:#40596B;" d="M510.09,449.8c0-40.331-25.397-76.373-63.253-89.92l-111.691-40.245l-0.043,0.043
	c-41.376,48.917-116.789,48.896-158.144-0.043L65.3,359.88C27.423,373.427,2.025,409.459,2.025,449.8v62.293H510.09L510.09,449.8
	L510.09,449.8z"/>
<polygon style="fill:#CDD6E0;" points="211.465,425.118 256.073,356.339 300.735,425.118 256.095,507.902 "/>
<g>
	<path style="fill:#F8B64C;" d="M186.676,316.179c0.853,1.163,0.747,1.163-0.107,0H186.676z"/>
	<path style="fill:#F8B64C;" d="M325.673,316.179c-0.853,1.163-0.96,1.163-0.128,0H325.673z"/>
</g>
<rect id="SVGCleanerId_0" x="325.556" y="316.094" style="fill:#F8B64C;" width="0.128" height="0.128"/>
<g>
	<rect id="SVGCleanerId_0_1_" x="325.556" y="316.094" style="fill:#F8B64C;" width="0.128" height="0.128"/>
</g>
<g>
	<path style="fill:#F8B64C;" d="M186.57,182.056c1.557,17.856-7.104,33.205-19.371,34.293
		c-12.245,1.067-23.456-12.544-25.024-30.421c-1.568-17.877,7.104-33.227,19.371-34.293
		C173.801,150.547,185.012,164.179,186.57,182.056"/>
	<path style="fill:#F8B64C;" d="M370.09,185.928c-1.557,17.877-12.768,31.477-25.045,30.421
		c-12.245-1.088-20.917-16.437-19.349-34.293c1.557-17.899,12.768-31.499,25.024-30.443
		C362.986,152.702,371.658,168.051,370.09,185.928"/>
</g>
<path style="fill:#FFD15C;" d="M256.138,32.84c-56.939,0-103.083,46.165-103.083,103.083v30.955c0,7.893,0.48,15.787,1.483,23.605
	v0.043c4.875,40.043,22.123,77.557,49.355,107.339l9.749,10.709c8.981,9.856,21.685,15.456,34.997,15.456h14.933
	c13.312,0,26.016-5.6,34.997-15.435l9.813-10.731c27.232-29.771,44.48-67.339,49.397-107.371c0.981-7.851,1.44-15.712,1.44-23.605
	v-30.955C359.22,79.006,313.055,32.84,256.138,32.84z"/>
<path style="fill:#F8B64C;" d="M325.578,316.222v-0.107h0.107v-40.224h-0.021c-5.227,7.691-10.955,15.061-17.269,21.984
	l-9.813,10.731c-8.981,9.835-21.664,15.435-34.997,15.435H248.65c-13.312,0-26.016-5.621-34.997-15.456l-9.749-10.709
	c-6.315-6.891-12.021-14.251-17.227-21.92c-0.021-0.021-0.064-0.021-0.085-0.064v40.224l-9.6,3.52
	c41.355,48.939,116.768,48.96,158.144,0.043l0.043-0.043l-9.483-3.413H325.578L325.578,316.222z"/>
<g style="opacity:0.1;">
	<g>
		<path style="fill:#40596B;" d="M325.578,316.222v-0.107h0.107v-40.224c-0.021,0.021-0.064,0.064-0.085,0.107
			c-5.205,7.648-10.912,14.976-17.205,21.877l-9.813,10.731c-8.981,9.835-21.685,15.435-34.997,15.435H248.65
			c-13.088,0-25.557-5.483-34.496-15.019c-0.021,0-0.064,0-0.064,0l47.392,47.061c27.349-1.419,54.251-13.461,73.643-36.395
			l0.021-0.021l0.021-0.021l-9.483-3.413h-0.107V316.222z"/>
	</g>
</g>
<g>
	<polygon style="fill:#F2F2F2;" points="186.57,316.115 158.633,326.238 211.465,423.944 256.073,356.339 	"/>
	<polygon style="fill:#F2F2F2;" points="325.631,316.115 353.577,326.238 300.735,423.944 256.138,356.339 	"/>
</g>
<path style="fill:#40596B;" d="M331.007,44.862H181.257c-15.253,12.523-29.024,31.189-36.853,59.061c0,0-14.816,67.733,8.853,85.504
	c0,0,8.896-1.184,5.92-20.416c0,0-2.837-6.933,0.245-14.144c4.192-9.792,6.123-20.373,8.245-30.816
	c3.253-16.085,10.709-34.645,27.776-35.296c0,0,43.275,5.547,60.704,5.547c17.397,0,60.672-5.547,60.672-5.547
	c17.141,0.651,24.608,19.317,27.851,35.435c2.059,10.315,3.829,20.832,8.085,30.453c3.232,7.296,0.331,14.357,0.331,14.357
	c-2.976,19.232,5.92,20.416,5.92,20.416c23.669-17.771,8.853-85.504,8.853-85.504C360.031,76.051,346.26,57.384,331.007,44.862"/>
<polygon style="fill:#FF7058;" points="285.055,400.264 256.073,356.339 227.092,400.264 241.599,414.76 227.092,512.115 
	285.055,512.115 270.548,414.76 "/>
<g>
	<path style="fill:#3DC9AE;" d="M379.263,310.963l-39.872-58.688l-13.728,23.605c-1.163,131.776-69.557,229.483-69.557,229.483
		v6.731h74.475l62.315-117.664l-39.317-45.984L379.263,310.963z"/>
	<path style="fill:#3DC9AE;" d="M133.076,310.963l39.872-58.688l13.728,23.605c1.163,131.776,69.557,229.483,69.557,229.483v6.731
		h-74.475L119.444,394.43l39.317-45.984L133.076,310.963z"/>
</g>
<g>
	<path style="fill:#40596B;" d="M365.738,49.054C359.359,19.55,332.49-0.866,302.506,0.03c-5.557,0.171-10.816,2.517-14.667,6.517
		c-0.107,0.107-0.213,0.213-0.309,0.309c-17.12,17.792-45.664,17.771-62.795,0l-0.309-0.331c-3.851-3.979-9.12-6.336-14.667-6.496
		c-29.963-0.917-56.853,19.52-63.232,49.024c-5.749,27.349-11.712,54.688-17.856,81.984c-1.003,12.288,9.248,23.147,22.891,24
		c69.643,4.437,139.477,4.437,209.12,0c13.643-0.832,23.893-11.691,22.891-24C377.45,103.742,371.487,76.403,365.738,49.054"/>
	<path style="fill:#40596B;" d="M345.599,149.171c-1.792-11.52-19.787-11.435-19.787-11.435h-31.787
		c-24.832,0-30.624,10.421-31.957,16.043c-3.915-0.672-7.936-0.672-11.829,0c-1.333-5.621-7.125-16.043-31.957-16.043h-31.787
		c0,0-18.005-0.085-19.787,11.435c0,0-8.373,45.184,25.088,51.317c0,0,44.768,7.211,56.373-30.955c5.045-2.187,10.933-2.187,16,0
		c11.605,38.165,56.373,30.955,56.373,30.955C353.972,194.366,345.599,149.171,345.599,149.171"/>
</g>
<path style="fill:#334A5E;" d="M389.514,132.382H122.74c-8,0-14.475,7.392-14.475,16.501c0,9.109,6.475,16.48,14.475,16.48h266.773
	c8,0,14.496-7.371,14.496-16.48C404.01,139.774,397.514,132.382,389.514,132.382"/>
<g>
</g>
<g>
</g>
<g>
</g>
<g>
</g>
<g>
</g>
<g>
</g>
<g>
</g>
<g>
</g>
<g>
</g>
<g>
</g>
<g>
</g>
<g>
</g>
<g>
</g>
<g>
</g>
<g>
</g>
</svg>
